    <svg
      version="1.1"
      xmlns="http://www.w3.org/2000/svg"
      viewBox="0 0 1201 206"
      
    >
      <path
        d="M0 0 C48.84 0 97.68 0 148 0 C148 67.98 148 135.96 148 206 C132.82 206 117.64 206 102 206 C102 179.6 102 153.2 102 126 C83.52 126 65.04 126 46 126 C46 152.4 46 178.8 46 206 C30.82 206 15.64 206 0 206 C0 138.02 0 70.04 0 0 Z M46 45 C46 56.55 46 68.1 46 80 C64.48 80 82.96 80 102 80 C102 68.45 102 56.9 102 45 C83.52 45 65.04 45 46 45 Z "
        fill="#8231FF"
        transform="translate(672,0)"
      />
      <path
        d="M0 0 C48.51 0 97.02 0 147 0 C147 41.25 147 82.5 147 125 C113.34 125 79.68 125 45 125 C45 151.73 45 178.46 45 206 C30.15 206 15.3 206 0 206 C0 138.02 0 70.04 0 0 Z M45 45 C45 56.55 45 68.1 45 80 C63.81 80 82.62 80 102 80 C102 68.45 102 56.9 102 45 C83.19 45 64.38 45 45 45 Z "
        fill="#8232FF"
        transform="translate(481,0)"
      />
      <path
        d="M0 0 C15.18 0 30.36 0 46 0 C46 26.4 46 52.8 46 80 C64.81 80 83.62 80 103 80 C103 94.85 103 109.7 103 125 C117.52 125 132.04 125 147 125 C147 151.73 147 178.46 147 206 C132.15 206 117.3 206 102 206 C102 179.6 102 153.2 102 126 C83.52 126 65.04 126 46 126 C46 152.4 46 178.8 46 206 C30.82 206 15.64 206 0 206 C0 138.02 0 70.04 0 0 Z "
        fill="#8132FF"
        transform="translate(1054,0)"
      />
      <path
        d="M0 0 C33.99 0 67.98 0 103 0 C103 14.85 103 29.7 103 45 C69.34 45 35.68 45 1 45 C1 82.95 1 120.9 1 160 C34.19422192 159.96038208 34.19422192 159.96038208 67.38842773 159.90991211 C73.79504395 159.90539551 73.79504395 159.90539551 76.79017639 159.90455627 C78.89096793 159.90301638 80.99175856 159.89949052 83.09254456 159.89442444 C86.26670884 159.88714972 89.44081892 159.88609249 92.61499023 159.88647461 C93.55759673 159.8828765 94.50020323 159.87927839 95.47137356 159.87557125 C101.88597366 159.88597366 101.88597366 159.88597366 103 161 C103 175.85 103 190.7 103 206 C69.01 206 35.02 206 0 206 C0 191.15 0 176.3 0 161 C-14.85 161 -29.7 161 -45 161 C-45 122.39 -45 83.78 -45 44 C-30.15 44 -15.3 44 0 44 C0 29.48 0 14.96 0 0 Z "
        fill="#8132FF"
        transform="translate(908,0)"
      />
      <path
        d="M0 0 C33.99 0 67.98 0 103 0 C103 14.85 103 29.7 103 45 C69.34 45 35.68 45 1 45 C1 98.13 1 151.26 1 206 C-13.85 206 -28.7 206 -44 206 C-44 152.54 -44 99.08 -44 44 C-29.48 44 -14.96 44 0 44 C0 29.48 0 14.96 0 0 Z "
        fill="#8131FF"
        transform="translate(44,0)"
      />
      <path
        d="M0 0 C1.62466013 0.00138269 1.62466013 0.00138269 3.28214169 0.00279331 C5.13952465 0.00073132 5.13952465 0.00073132 7.0344305 -0.00137234 C8.41924214 0.00216727 9.80405354 0.00580209 11.18886471 0.00952244 C12.63726964 0.0098043 14.08567471 0.00964659 15.53407955 0.00907993 C19.47812183 0.00879193 23.42213397 0.01468903 27.36616921 0.02165389 C31.48349338 0.02788705 35.60081817 0.0284912 39.71814632 0.0296793 C47.52025732 0.03279273 55.32235437 0.04100627 63.12445921 0.05102879 C72.00460173 0.06218957 80.88474491 0.06770029 89.7648927 0.07272422 C108.03700422 0.08318887 126.30909661 0.10153449 144.58119869 0.12304783 C144.58119869 15.30304783 144.58119869 30.48304783 144.58119869 46.12304783 C95.74119869 46.12304783 46.90119869 46.12304783 -3.41880131 46.12304783 C-3.41880131 0.17391924 -3.41880131 0.17391924 0 0 Z "
        fill="#8132FF"
        transform="translate(193.41880130767822,159.87695217132568)"
      />
      <path
        d="M0 0 C48.51 0 97.02 0 147 0 C147 15.18 147 30.36 147 46 C98.49 46 49.98 46 0 46 C0 30.82 0 15.64 0 0 Z "
        fill="#8132FF"
        transform="translate(191,80)"
      />
      <path
        d="M0 0 C48.51 0 97.02 0 147 0 C147 14.85 147 29.7 147 45 C98.49 45 49.98 45 0 45 C0 30.15 0 15.3 0 0 Z "
        fill="#8131FF"
        transform="translate(191,0)"
      />
      <path
        d="M0 0 C6.42865434 5.28868947 12.35121174 11.06346207 18.26416016 16.9140625 C19.43045408 18.06362478 20.60210878 19.20777122 21.77880859 20.34667969 C23.48968278 22.0030976 25.18379576 23.67509539 26.875 25.3515625 C27.40504639 25.85893951 27.93509277 26.36631653 28.48120117 26.8890686 C29.9296875 28.34619141 29.9296875 28.34619141 32 31 C31.67325307 34.20109845 30.50562598 35.87701884 28.2878418 38.13208008 C27.72022629 38.71560745 27.15261078 39.29913483 26.5677948 39.90034485 C25.9511647 40.51717636 25.33453461 41.13400787 24.69921875 41.76953125 C23.75004326 42.73012703 23.75004326 42.73012703 22.7816925 43.71012878 C21.4430604 45.05955656 20.1004398 46.40503779 18.75415039 47.74682617 C16.69154334 49.80845858 14.65118717 51.89049643 12.61132812 53.97460938 C11.30859405 55.2825485 10.0045993 56.58923342 8.69921875 57.89453125 C7.78338264 58.83496025 7.78338264 58.83496025 6.8490448 59.79438782 C5.1003418 61.51489258 5.1003418 61.51489258 2 64 C-1.28652797 63.72717724 -2.93927112 62.43014493 -5.20800781 60.13256836 C-5.80832825 59.53202133 -6.40864868 58.9314743 -7.02716064 58.31272888 C-7.66272888 57.66167679 -8.29829712 57.01062469 -8.953125 56.33984375 C-9.61334656 55.67537735 -10.27356812 55.01091095 -10.95379639 54.3263092 C-13.0596764 52.20364437 -15.15488328 50.07078395 -17.25 47.9375 C-18.67639232 46.49606066 -20.1034677 45.05529691 -21.53125 43.61523438 C-25.02880594 40.08461168 -28.51682565 36.54480947 -32 33 C-28.10023279 28.33125463 -24.04785356 23.90872191 -19.7265625 19.62890625 C-19.15795502 19.06171371 -18.58934753 18.49452118 -18.00350952 17.91014099 C-16.21303764 16.12520087 -14.41909516 14.34379744 -12.625 12.5625 C-11.39950677 11.34203061 -10.17424428 10.12132947 -8.94921875 8.90039062 C-5.96880226 5.93091244 -2.98527106 2.96459743 0 0 Z "
        fill="#8132FF"
        transform="translate(409,142)"
      />
      <path
        d="M0 0 C2.85779017 1.29719924 4.91008536 2.6636826 7.11621094 4.88916016 C7.69651062 5.4696109 8.2768103 6.05006165 8.87469482 6.64810181 C9.48838928 7.27211884 10.10208374 7.89613586 10.734375 8.5390625 C11.37240051 9.17991791 12.01042603 9.82077332 12.66778564 10.48104858 C14.69994069 12.52437821 16.72502218 14.57455982 18.75 16.625 C20.1284453 18.0134786 21.50734636 19.4015049 22.88671875 20.7890625 C26.26311894 24.18748697 29.63319288 27.59207254 33 31 C29.10023279 35.66874537 25.04785356 40.09127809 20.7265625 44.37109375 C20.15795502 44.93828629 19.58934753 45.50547882 19.00350952 46.08985901 C17.21303764 47.87479913 15.41909516 49.65620256 13.625 51.4375 C12.39950677 52.65796939 11.17424428 53.87867053 9.94921875 55.09960938 C6.96880226 58.06908756 3.98527106 61.03540257 1 64 C-6.11905227 58.19316781 -12.47374812 51.63714556 -18.9375 45.125 C-20.10979204 43.94768362 -21.28231614 42.77059826 -22.45507812 41.59375 C-25.30606982 38.73182511 -28.15389615 35.86678543 -31 33 C-29.70280076 30.14220983 -28.3363174 28.08991464 -26.11083984 25.88378906 C-25.5303891 25.30348938 -24.94993835 24.7231897 -24.35189819 24.12530518 C-23.72788116 23.51161072 -23.10386414 22.89791626 -22.4609375 22.265625 C-21.82008209 21.62759949 -21.17922668 20.98957397 -20.51895142 20.33221436 C-18.47562179 18.30005931 -16.42544018 16.27497782 -14.375 14.25 C-12.9865214 12.8715547 -11.5984951 11.49265364 -10.2109375 10.11328125 C-6.81251303 6.73688106 -3.40792746 3.36680712 0 0 Z "
        fill="#8232FF"
        transform="translate(1167,0)"
      />
    </svg>
